<svg width="30" height="30" viewBox="0 0 30 30" fill="none" xmlns="http://www.w3.org/2000/svg">
<mask id="mask0_1_1024" style="mask-type:alpha" maskUnits="userSpaceOnUse" x="0" y="0" width="30" height="30">
<rect width="30" height="30" fill="#D9D9D9"/>
</mask>
<g mask="url(#mask0_1_1024)">
<path d="M18.4509 23.375C16.1093 23.375 14.1257 22.5624 12.5003 20.9372C10.8751 19.3118 10.0625 17.3282 10.0625 14.9866C10.0625 12.6622 10.8751 10.6875 12.5003 9.0625C14.1257 7.4375 16.1093 6.625 18.4509 6.625C20.7753 6.625 22.75 7.4375 24.375 9.0625C26 10.6875 26.8125 12.6622 26.8125 14.9866C26.8125 17.3282 26 19.3118 24.375 20.9372C22.75 22.5624 20.7753 23.375 18.4509 23.375ZM18.4375 22.5C20.5208 22.5 22.2917 21.7708 23.75 20.3125C25.2083 18.8542 25.9375 17.0833 25.9375 15C25.9375 12.9167 25.2083 11.1458 23.75 9.6875C22.2917 8.22917 20.5208 7.5 18.4375 7.5C16.3542 7.5 14.5833 8.22917 13.125 9.6875C11.6667 11.1458 10.9375 12.9167 10.9375 15C10.9375 17.0833 11.6667 18.8542 13.125 20.3125C14.5833 21.7708 16.3542 22.5 18.4375 22.5ZM18.875 14.8438V10.9375C18.875 10.8135 18.8329 10.7097 18.7488 10.6259C18.6648 10.542 18.5606 10.5 18.4363 10.5C18.3121 10.5 18.2083 10.542 18.125 10.6259C18.0417 10.7097 18 10.8135 18 10.9375V14.8125C18 14.9285 18.0208 15.0408 18.0625 15.1494C18.1042 15.2581 18.1798 15.3678 18.2894 15.4784L21.2812 18.5C21.3646 18.6042 21.4635 18.6562 21.5781 18.6562C21.6927 18.6562 21.8021 18.6042 21.9062 18.5C22.0104 18.3958 22.0625 18.2917 22.0625 18.1875C22.0625 18.0833 22.0104 17.9792 21.9062 17.875L18.875 14.8438ZM4.875 10.4375C4.75104 10.4375 4.64708 10.3954 4.56313 10.3113C4.47938 10.2273 4.4375 10.1231 4.4375 9.99875C4.4375 9.87458 4.47938 9.77083 4.56313 9.6875C4.64708 9.60417 4.75104 9.5625 4.875 9.5625H8.375C8.49896 9.5625 8.60292 9.60458 8.68688 9.68875C8.77063 9.77271 8.8125 9.87687 8.8125 10.0012C8.8125 10.1254 8.77063 10.2292 8.68688 10.3125C8.60292 10.3958 8.49896 10.4375 8.375 10.4375H4.875ZM3.625 15.4375C3.50104 15.4375 3.39719 15.3954 3.31344 15.3112C3.22948 15.2273 3.1875 15.1231 3.1875 14.9987C3.1875 14.8746 3.22948 14.7708 3.31344 14.6875C3.39719 14.6042 3.50104 14.5625 3.625 14.5625H8.375C8.49896 14.5625 8.60292 14.6046 8.68688 14.6888C8.77063 14.7727 8.8125 14.8769 8.8125 15.0013C8.8125 15.1254 8.77063 15.2292 8.68688 15.3125C8.60292 15.3958 8.49896 15.4375 8.375 15.4375H3.625ZM4.875 20.4375C4.75104 20.4375 4.64708 20.3954 4.56313 20.3113C4.47938 20.2273 4.4375 20.1231 4.4375 19.9988C4.4375 19.8746 4.47938 19.7708 4.56313 19.6875C4.64708 19.6042 4.75104 19.5625 4.875 19.5625H8.375C8.49896 19.5625 8.60292 19.6046 8.68688 19.6888C8.77063 19.7727 8.8125 19.8769 8.8125 20.0013C8.8125 20.1254 8.77063 20.2292 8.68688 20.3125C8.60292 20.3958 8.49896 20.4375 8.375 20.4375H4.875Z" fill="white"/>
</g>
</svg>
