<svg width="50" height="50" viewBox="0 0 50 50" fill="none" xmlns="http://www.w3.org/2000/svg">
<mask id="mask0_1_532" style="mask-type:alpha" maskUnits="userSpaceOnUse" x="0" y="0" width="50" height="50">
<rect width="50" height="50" fill="#D9D9D9"/>
</mask>
<g mask="url(#mask0_1_532)">
<path d="M21.771 25.1043L24.8439 28.1772C25.1217 28.4897 25.4776 28.646 25.9116 28.646C26.3456 28.646 26.7189 28.4897 27.0314 28.1772L34.6877 20.5731V25.0522C34.6877 25.2259 34.7571 25.3821 34.896 25.521C35.0349 25.6599 35.2085 25.7293 35.4168 25.7293C35.5904 25.7293 35.7554 25.6599 35.9116 25.521C36.0679 25.3821 36.146 25.2085 36.146 25.0002V19.5835C36.146 19.1668 35.9897 18.8022 35.6772 18.4897C35.3647 18.1772 35.0002 18.021 34.5835 18.021H29.1147C28.9411 18.021 28.7849 18.0991 28.646 18.2554C28.5071 18.4116 28.4377 18.5766 28.4377 18.7502C28.4377 18.9585 28.5071 19.1321 28.646 19.271C28.7849 19.4099 28.9585 19.4793 29.1668 19.4793H33.5939L25.9377 27.2397L22.8647 24.1668C22.5522 23.8543 22.179 23.6981 21.745 23.6981C21.3109 23.6981 20.955 23.8543 20.6772 24.1668L14.896 29.896C14.7571 30.0696 14.6877 30.2519 14.6877 30.4429C14.6877 30.6338 14.7571 30.7988 14.896 30.9377C15.0696 31.1113 15.2519 31.1981 15.4429 31.1981C15.6338 31.1981 15.7988 31.1113 15.9377 30.9377L21.771 25.1043ZM12.0835 41.0418C11.1807 41.0418 10.4342 40.7467 9.84391 40.1564C9.25364 39.5661 8.9585 38.8196 8.9585 37.9168V12.0835C8.9585 11.1807 9.25364 10.4342 9.84391 9.84391C10.4342 9.25364 11.1807 8.9585 12.0835 8.9585H37.9168C38.8196 8.9585 39.5661 9.25364 40.1564 9.84391C40.7467 10.4342 41.0418 11.1807 41.0418 12.0835V37.9168C41.0418 38.8196 40.7467 39.5661 40.1564 40.1564C39.5661 40.7467 38.8196 41.0418 37.9168 41.0418H12.0835ZM12.0835 39.5835H37.9168C38.3335 39.5835 38.7154 39.4099 39.0627 39.0627C39.4099 38.7154 39.5835 38.3335 39.5835 37.9168V12.0835C39.5835 11.6668 39.4099 11.2849 39.0627 10.9377C38.7154 10.5904 38.3335 10.4168 37.9168 10.4168H12.0835C11.6668 10.4168 11.2849 10.5904 10.9377 10.9377C10.5904 11.2849 10.4168 11.6668 10.4168 12.0835V37.9168C10.4168 38.3335 10.5904 38.7154 10.9377 39.0627C11.2849 39.4099 11.6668 39.5835 12.0835 39.5835Z" fill="#1656A5"/>
</g>
</svg>
