<svg width="30" height="30" viewBox="0 0 30 30" fill="none" xmlns="http://www.w3.org/2000/svg">
<mask id="mask0_1_1100" style="mask-type:alpha" maskUnits="userSpaceOnUse" x="0" y="0" width="30" height="30">
<rect width="30" height="30" fill="#D9D9D9"/>
</mask>
<g mask="url(#mask0_1_1100)">
<path d="M21.25 19.4063C20.5208 19.4063 19.901 19.151 19.3906 18.6406C18.8802 18.1302 18.625 17.5104 18.625 16.7813C18.625 16.0521 18.8802 15.4323 19.3906 14.9219C19.901 14.4115 20.5208 14.1563 21.25 14.1563C21.9792 14.1563 22.599 14.4115 23.1094 14.9219C23.6198 15.4323 23.875 16.0521 23.875 16.7813C23.875 17.5104 23.6198 18.1302 23.1094 18.6406C22.599 19.151 21.9792 19.4063 21.25 19.4063ZM21.25 18.5313C21.7292 18.5313 22.1406 18.3594 22.4844 18.0156C22.8281 17.6719 23 17.2604 23 16.7813C23 16.3021 22.8281 15.8906 22.4844 15.5469C22.1406 15.2031 21.7292 15.0313 21.25 15.0313C20.7708 15.0313 20.3594 15.2031 20.0156 15.5469C19.6719 15.8906 19.5 16.3021 19.5 16.7813C19.5 17.2604 19.6719 17.6719 20.0156 18.0156C20.3594 18.3594 20.7708 18.5313 21.25 18.5313ZM15.8125 26.375C15.5469 26.375 15.3243 26.2851 15.1447 26.1053C14.9649 25.9257 14.875 25.7031 14.875 25.4375V23.875C14.875 23.634 14.9326 23.4074 15.0478 23.1953C15.1628 22.983 15.324 22.8138 15.5313 22.6875C16.0729 22.3542 16.5469 22.1198 16.9531 21.9844C17.3594 21.849 17.8771 21.7266 18.5063 21.6172C18.7104 21.5807 18.9063 21.5848 19.0938 21.6294C19.2813 21.6742 19.4375 21.7769 19.5625 21.9375L21.25 24.1563L22.9063 21.9375C23.0313 21.7708 23.1875 21.6667 23.375 21.625C23.5625 21.5833 23.7608 21.5807 23.97 21.6172C24.615 21.7266 25.1335 21.8479 25.5256 21.9813C25.9175 22.1144 26.3985 22.3498 26.9688 22.6875C27.1771 22.8125 27.3333 22.9792 27.4375 23.1875C27.5417 23.3958 27.6042 23.6146 27.625 23.8438V25.4375C27.625 25.7031 27.5352 25.9257 27.3556 26.1053C27.1758 26.2851 26.9531 26.375 26.6875 26.375H15.8125ZM15.7188 25.5H21.1563L18.8125 22.375C18.2644 22.499 17.7316 22.6602 17.2141 22.8588C16.6964 23.0571 16.1979 23.2917 15.7188 23.5625V25.5ZM21.3438 25.5H26.75V23.5625C26.2708 23.2917 25.7724 23.0625 25.2547 22.875C24.7372 22.6875 24.2044 22.5313 23.6563 22.4063L21.3438 25.5ZM6.25 23.75V6.25V10.9062V10.4063V23.75ZM7.265 24.625C6.73417 24.625 6.28646 24.4414 5.92188 24.0741C5.55729 23.707 5.375 23.2656 5.375 22.75V7.25C5.375 6.73438 5.55865 6.29292 5.92594 5.92562C6.29302 5.55854 6.73438 5.375 7.25 5.375H22.75C23.2656 5.375 23.7071 5.55854 24.0744 5.92562C24.4415 6.29292 24.625 6.73438 24.625 7.25V11.375C24.4792 11.2708 24.3385 11.1823 24.2031 11.1094C24.0677 11.0365 23.9167 10.9688 23.75 10.9062V7.25C23.75 6.95833 23.6563 6.71875 23.4688 6.53125C23.2813 6.34375 23.0417 6.25 22.75 6.25H7.25C6.95833 6.25 6.71875 6.34375 6.53125 6.53125C6.34375 6.71875 6.25 6.95833 6.25 7.25V22.75C6.25 23.0417 6.34375 23.2813 6.53125 23.4688C6.71875 23.6563 6.95833 23.75 7.25 23.75H11.125V24.625H7.265ZM10 10.8125H19C19.2292 10.7083 19.4635 10.6354 19.7031 10.5938C19.9427 10.5521 20.1875 10.5104 20.4375 10.4688V10.375C20.4375 10.251 20.3955 10.1472 20.3116 10.0634C20.2278 9.97948 20.124 9.9375 20 9.9375H10C9.87604 9.9375 9.77208 9.97958 9.68813 10.0637C9.60437 10.1477 9.5625 10.2519 9.5625 10.3762C9.5625 10.5004 9.60437 10.6042 9.68813 10.6875C9.77208 10.7708 9.87604 10.8125 10 10.8125ZM10 15.4375H15.0313C15.0729 15.2708 15.1146 15.1198 15.1563 14.9844C15.1979 14.849 15.2396 14.7083 15.2813 14.5625H10C9.87604 14.5625 9.77208 14.6046 9.68813 14.6888C9.60437 14.7727 9.5625 14.8769 9.5625 15.0013C9.5625 15.1254 9.60437 15.2292 9.68813 15.3125C9.77208 15.3958 9.87604 15.4375 10 15.4375ZM10 20.0625H12.8097C13.0199 19.8958 13.2344 19.7344 13.4531 19.5781C13.6719 19.4219 13.8958 19.2917 14.125 19.1875H10C9.87604 19.1875 9.77208 19.2296 9.68813 19.3138C9.60437 19.3977 9.5625 19.5019 9.5625 19.6263C9.5625 19.7504 9.60437 19.8542 9.68813 19.9375C9.77208 20.0208 9.87604 20.0625 10 20.0625Z" fill="#F9F9F9"/>
</g>
</svg>
