<svg width="30" height="30" viewBox="0 0 30 30" fill="none" xmlns="http://www.w3.org/2000/svg">
<mask id="mask0_1_1093" style="mask-type:alpha" maskUnits="userSpaceOnUse" x="0" y="0" width="30" height="30">
<rect width="30" height="30" fill="#D9D9D9"/>
</mask>
<g mask="url(#mask0_1_1093)">
<path d="M10 17.3125C9.77083 17.3125 9.56771 17.224 9.39062 17.0469C9.21354 16.8698 9.125 16.6667 9.125 16.4375C9.125 16.2083 9.21354 16.0052 9.39062 15.8281C9.56771 15.651 9.77083 15.5625 10 15.5625C10.2292 15.5625 10.4323 15.651 10.6094 15.8281C10.7865 16.0052 10.875 16.2083 10.875 16.4375C10.875 16.6667 10.7865 16.8698 10.6094 17.0469C10.4323 17.224 10.2292 17.3125 10 17.3125ZM15 17.3125C14.7708 17.3125 14.5677 17.224 14.3906 17.0469C14.2135 16.8698 14.125 16.6667 14.125 16.4375C14.125 16.2083 14.2135 16.0052 14.3906 15.8281C14.5677 15.651 14.7708 15.5625 15 15.5625C15.2292 15.5625 15.4323 15.651 15.6094 15.8281C15.7865 16.0052 15.875 16.2083 15.875 16.4375C15.875 16.6667 15.7865 16.8698 15.6094 17.0469C15.4323 17.224 15.2292 17.3125 15 17.3125ZM20 17.3125C19.7708 17.3125 19.5677 17.224 19.3906 17.0469C19.2135 16.8698 19.125 16.6667 19.125 16.4375C19.125 16.2083 19.2135 16.0052 19.3906 15.8281C19.5677 15.651 19.7708 15.5625 20 15.5625C20.2292 15.5625 20.4323 15.651 20.6094 15.8281C20.7865 16.0052 20.875 16.2083 20.875 16.4375C20.875 16.6667 20.7865 16.8698 20.6094 17.0469C20.4323 17.224 20.2292 17.3125 20 17.3125ZM7.25 25.875C6.70833 25.875 6.26042 25.6979 5.90625 25.3438C5.55208 24.9896 5.375 24.5417 5.375 24V8.5C5.375 7.95833 5.55208 7.51042 5.90625 7.15625C6.26042 6.80208 6.70833 6.625 7.25 6.625H9.75V4.25C9.75 4.10417 9.79688 3.98438 9.89062 3.89062C9.98438 3.79688 10.1042 3.75 10.25 3.75C10.3958 3.75 10.5156 3.79688 10.6094 3.89062C10.7031 3.98438 10.75 4.10417 10.75 4.25V6.625H19.375V4.1875C19.375 4.0625 19.4167 3.95833 19.5 3.875C19.5833 3.79167 19.6875 3.75 19.8125 3.75C19.9375 3.75 20.0417 3.79167 20.125 3.875C20.2083 3.95833 20.25 4.0625 20.25 4.1875V6.625H22.75C23.2917 6.625 23.7396 6.80208 24.0938 7.15625C24.4479 7.51042 24.625 7.95833 24.625 8.5V24C24.625 24.5417 24.4479 24.9896 24.0938 25.3438C23.7396 25.6979 23.2917 25.875 22.75 25.875H7.25ZM7.25 25H22.75C23 25 23.2292 24.8958 23.4375 24.6875C23.6458 24.4792 23.75 24.25 23.75 24V13.5H6.25V24C6.25 24.25 6.35417 24.4792 6.5625 24.6875C6.77083 24.8958 7 25 7.25 25ZM6.25 12.625H23.75V8.5C23.75 8.25 23.6458 8.02083 23.4375 7.8125C23.2292 7.60417 23 7.5 22.75 7.5H7.25C7 7.5 6.77083 7.60417 6.5625 7.8125C6.35417 8.02083 6.25 8.25 6.25 8.5V12.625Z" fill="#F9F9F9"/>
</g>
</svg>
