<svg width="30" height="30" viewBox="0 0 30 30" fill="none" xmlns="http://www.w3.org/2000/svg">
<mask id="mask0_1_1041" style="mask-type:alpha" maskUnits="userSpaceOnUse" x="0" y="0" width="30" height="30">
<rect width="30" height="30" fill="#D9D9D9"/>
</mask>
<g mask="url(#mask0_1_1041)">
<path d="M6.24974 24.625C5.87682 24.625 5.61172 24.4583 5.45443 24.125C5.29714 23.7917 5.33307 23.4792 5.56224 23.1875L12.8747 14.3125V6.25H10.9997C10.8758 6.25 10.7718 6.20792 10.6879 6.12375C10.6041 6.03979 10.5622 5.93563 10.5622 5.81125C10.5622 5.68708 10.6041 5.58333 10.6879 5.5C10.7718 5.41667 10.8758 5.375 10.9997 5.375H18.9997C19.1237 5.375 19.2276 5.41708 19.3113 5.50125C19.3953 5.58521 19.4372 5.68937 19.4372 5.81375C19.4372 5.93792 19.3953 6.04167 19.3113 6.125C19.2276 6.20833 19.1237 6.25 18.9997 6.25H17.1247V14.3125L24.4372 23.1875C24.6664 23.4792 24.7023 23.7917 24.5451 24.125C24.3878 24.4583 24.1227 24.625 23.7497 24.625H6.24974ZM8.74974 22.5H21.2497L16.9997 17.5H12.9997L8.74974 22.5ZM6.24974 23.75H23.7497L16.2497 14.625V6.25H13.7497V14.625L6.24974 23.75Z" fill="#F9F9F9"/>
</g>
</svg>
