<svg width="30" height="30" viewBox="0 0 30 30" fill="none" xmlns="http://www.w3.org/2000/svg">
<mask id="mask0_1_1062" style="mask-type:alpha" maskUnits="userSpaceOnUse" x="0" y="0" width="30" height="30">
<rect width="30" height="30" fill="#D9D9D9"/>
</mask>
<g mask="url(#mask0_1_1062)">
<path d="M13.9375 15.4375V18.0937C13.9375 18.2265 13.9824 18.3378 14.0722 18.4278C14.1622 18.5176 14.2735 18.5625 14.4062 18.5625H15.5938C15.7396 18.5625 15.8542 18.5176 15.9375 18.4278C16.0208 18.3378 16.0625 18.2265 16.0625 18.0937V15.4375H18.7188C18.8646 15.4375 18.9792 15.3926 19.0625 15.3028C19.1458 15.2128 19.1875 15.1015 19.1875 14.9687V13.7812C19.1875 13.6354 19.1458 13.5208 19.0625 13.4375C18.9792 13.3542 18.8646 13.3125 18.7188 13.3125H16.0625V10.6562C16.0625 10.5104 16.0208 10.3958 15.9375 10.3125C15.8542 10.2292 15.7396 10.1875 15.5938 10.1875H14.4062C14.2735 10.1875 14.1622 10.2292 14.0722 10.3125C13.9824 10.3958 13.9375 10.5104 13.9375 10.6562V13.3125H11.2812C11.1485 13.3125 11.0372 13.3542 10.9472 13.4375C10.8574 13.5208 10.8125 13.6354 10.8125 13.7812V14.9687C10.8125 15.1015 10.8574 15.2128 10.9472 15.3028C11.0372 15.3926 11.1485 15.4375 11.2812 15.4375H13.9375ZM15 25.6562C14.8958 25.6562 14.7812 25.6458 14.6562 25.625C14.5312 25.6042 14.4165 25.5729 14.3119 25.5312C11.9581 24.5938 10.0885 23.0469 8.70312 20.8906C7.31771 18.7344 6.625 16.3958 6.625 13.875V8.6875C6.625 8.28625 6.73833 7.92521 6.965 7.60438C7.19146 7.28333 7.48438 7.05062 7.84375 6.90625L14.3438 4.5C14.5729 4.41667 14.7917 4.375 15 4.375C15.2083 4.375 15.4271 4.41667 15.6562 4.5L22.1562 6.90625C22.5156 7.05062 22.8086 7.28333 23.0353 7.60438C23.2618 7.92521 23.375 8.28625 23.375 8.6875V13.875C23.375 16.3958 22.6823 18.7344 21.2969 20.8906C19.9115 23.0469 18.0419 24.5938 15.6881 25.5312C15.5835 25.5729 15.4688 25.6042 15.3438 25.625C15.2188 25.6458 15.1042 25.6562 15 25.6562ZM15 24.875C17.1667 24.1875 18.9583 22.8125 20.375 20.75C21.7917 18.6875 22.5 16.3958 22.5 13.875V8.65625C22.5 8.44792 22.4427 8.26042 22.3281 8.09375C22.2135 7.92708 22.0521 7.80208 21.8438 7.71875L15.3438 5.3125C15.2396 5.27083 15.125 5.25 15 5.25C14.875 5.25 14.7604 5.27083 14.6562 5.3125L8.15625 7.71875C7.94792 7.80208 7.78646 7.92708 7.67188 8.09375C7.55729 8.26042 7.5 8.44792 7.5 8.65625V13.875C7.5 16.3958 8.20833 18.6875 9.625 20.75C11.0417 22.8125 12.8333 24.1875 15 24.875Z" fill="#F9F9F9"/>
</g>
</svg>
