<svg width="50" height="50" viewBox="0 0 50 50" fill="none" xmlns="http://www.w3.org/2000/svg">
<mask id="mask0_1_556" style="mask-type:alpha" maskUnits="userSpaceOnUse" x="0" y="0" width="50" height="50">
<rect width="50" height="50" fill="#D9D9D9"/>
</mask>
<g mask="url(#mask0_1_556)">
<path d="M33.3332 35.4167C36.2151 35.4167 38.6717 34.401 40.703 32.3698C42.7342 30.3385 43.7498 27.8819 43.7498 25C43.7498 22.1181 42.7342 19.6615 40.703 17.6302C38.6717 15.599 36.2151 14.5833 33.3332 14.5833C31.8748 14.5833 30.5207 14.8524 29.2707 15.3906C28.0207 15.9288 26.9269 16.6667 25.9894 17.6042C26.788 18.6111 27.413 19.7483 27.8644 21.0156C28.3158 22.283 28.5415 23.6111 28.5415 25C28.5415 26.3889 28.3158 27.717 27.8644 28.9844C27.413 30.2517 26.788 31.3889 25.9894 32.3958C26.9269 33.3333 28.0207 34.0712 29.2707 34.6094C30.5207 35.1476 31.8748 35.4167 33.3332 35.4167ZM24.9998 31.25C25.6596 30.3819 26.1717 29.4184 26.5363 28.3594C26.9009 27.3003 27.0832 26.1806 27.0832 25C27.0832 23.8194 26.9009 22.6997 26.5363 21.6406C26.1717 20.5816 25.6596 19.6181 24.9998 18.75C24.3401 19.6181 23.828 20.5816 23.4634 21.6406C23.0988 22.6997 22.9165 23.8194 22.9165 25C22.9165 26.1806 23.0988 27.3003 23.4634 28.3594C23.828 29.4184 24.3401 30.3819 24.9998 31.25ZM16.6665 35.4167C18.1248 35.4167 19.479 35.1476 20.729 34.6094C21.979 34.0712 23.0728 33.3333 24.0103 32.3958C23.2116 31.3889 22.5866 30.2517 22.1353 28.9844C21.6839 27.717 21.4582 26.3889 21.4582 25C21.4582 23.6111 21.6839 22.283 22.1353 21.0156C22.5866 19.7483 23.2116 18.6111 24.0103 17.6042C23.0728 16.6667 21.979 15.9288 20.729 15.3906C19.479 14.8524 18.1248 14.5833 16.6665 14.5833C13.7846 14.5833 11.328 15.599 9.29671 17.6302C7.26546 19.6615 6.24984 22.1181 6.24984 25C6.24984 27.8819 7.26546 30.3385 9.29671 32.3698C11.328 34.401 13.7846 35.4167 16.6665 35.4167ZM16.6665 36.875C13.3679 36.875 10.5641 35.7205 8.25505 33.4115C5.94602 31.1024 4.7915 28.2986 4.7915 25C4.7915 21.7014 5.94602 18.8976 8.25505 16.5885C10.5641 14.2795 13.3679 13.125 16.6665 13.125C18.2984 13.125 19.8262 13.4288 21.2498 14.0365C22.6734 14.6441 23.9234 15.4861 24.9998 16.5625C26.0762 15.4861 27.3262 14.6441 28.7498 14.0365C30.1734 13.4288 31.7012 13.125 33.3332 13.125C36.6318 13.125 39.4356 14.2795 41.7446 16.5885C44.0537 18.8976 45.2082 21.7014 45.2082 25C45.2082 28.2986 44.0537 31.1024 41.7446 33.4115C39.4356 35.7205 36.6318 36.875 33.3332 36.875C31.7012 36.875 30.1734 36.5712 28.7498 35.9635C27.3262 35.3559 26.0762 34.5139 24.9998 33.4375C23.9234 34.5139 22.6734 35.3559 21.2498 35.9635C19.8262 36.5712 18.2984 36.875 16.6665 36.875Z" fill="#1656A5"/>
</g>
</svg>
