<svg width="30" height="30" viewBox="0 0 30 30" fill="none" xmlns="http://www.w3.org/2000/svg">
<mask id="mask0_1_1048" style="mask-type:alpha" maskUnits="userSpaceOnUse" x="0" y="0" width="30" height="30">
<rect width="30" height="30" fill="#D9D9D9"/>
</mask>
<g mask="url(#mask0_1_1048)">
<path d="M4.75 24.625C4.22917 24.625 3.78646 24.4427 3.42188 24.0781C3.05729 23.7135 2.875 23.2708 2.875 22.75V18.5C2.875 17.9792 3.05729 17.5365 3.42188 17.1719C3.78646 16.8073 4.22917 16.625 4.75 16.625H5.375V10.625H5.0625C4.79167 10.625 4.56771 10.5365 4.39062 10.3594C4.21354 10.1823 4.125 9.95833 4.125 9.6875V8C4.125 7.72917 4.21354 7.50521 4.39062 7.32812C4.56771 7.15104 4.79167 7.0625 5.0625 7.0625H11.1875C11.4583 7.0625 11.6823 7.15104 11.8594 7.32812C12.0365 7.50521 12.125 7.72917 12.125 8V9.6875C12.125 9.95833 12.0365 10.1823 11.8594 10.3594C11.6823 10.5365 11.4583 10.625 11.1875 10.625H10.875V16.625H19.125V10.625H18.8125C18.5417 10.625 18.3177 10.5365 18.1406 10.3594C17.9635 10.1823 17.875 9.95833 17.875 9.6875V8C17.875 7.72917 17.9635 7.50521 18.1406 7.32812C18.3177 7.15104 18.5417 7.0625 18.8125 7.0625H24.9375C25.2083 7.0625 25.4323 7.15104 25.6094 7.32812C25.7865 7.50521 25.875 7.72917 25.875 8V9.6875C25.875 9.95833 25.7865 10.1823 25.6094 10.3594C25.4323 10.5365 25.2083 10.625 24.9375 10.625H24.625V16.625H25.25C25.7708 16.625 26.2135 16.8073 26.5781 17.1719C26.9427 17.5365 27.125 17.9792 27.125 18.5V22.75C27.125 23.2708 26.9427 23.7135 26.5781 24.0781C26.2135 24.4427 25.7708 24.625 25.25 24.625H4.75ZM18.75 9.75H25V7.9375H18.75V9.75ZM5 9.75H11.25V7.9375H5V9.75ZM20 16.625H23.75V10.625H20V16.625ZM6.25 16.625H10V10.625H6.25V16.625ZM4.75 23.75H25.25C25.5417 23.75 25.7812 23.6562 25.9688 23.4688C26.1562 23.2812 26.25 23.0417 26.25 22.75V18.5C26.25 18.2083 26.1562 17.9688 25.9688 17.7812C25.7812 17.5938 25.5417 17.5 25.25 17.5H4.75C4.45833 17.5 4.21875 17.5938 4.03125 17.7812C3.84375 17.9688 3.75 18.2083 3.75 18.5V22.75C3.75 23.0417 3.84375 23.2812 4.03125 23.4688C4.21875 23.6562 4.45833 23.75 4.75 23.75Z" fill="#F9F9F9"/>
</g>
</svg>
