<svg width="30" height="30" viewBox="0 0 30 30" fill="none" xmlns="http://www.w3.org/2000/svg">
<mask id="mask0_1_1010" style="mask-type:alpha" maskUnits="userSpaceOnUse" x="0" y="0" width="30" height="30">
<rect width="30" height="30" fill="#D9D9D9"/>
</mask>
<g mask="url(#mask0_1_1010)">
<path d="M11.2188 19.5938C11.0948 19.5938 10.9908 19.5517 10.9069 19.4675C10.8231 19.3835 10.7812 19.2794 10.7812 19.155C10.7812 19.0308 10.8231 18.9271 10.9069 18.8438C10.9908 18.7604 11.0948 18.7188 11.2188 18.7188H14.4063C14.5302 18.7188 14.6342 18.7608 14.7181 18.845C14.8019 18.929 14.8438 19.0331 14.8438 19.1575C14.8438 19.2817 14.8019 19.3854 14.7181 19.4688C14.6342 19.5521 14.5302 19.5938 14.4063 19.5938H11.2188ZM10.5625 25.875C9.12729 25.875 7.90385 25.3854 6.89219 24.4062C5.88073 23.4271 5.375 22.2292 5.375 20.8125V9.4375C4.83333 9.4375 4.375 9.25521 4 8.89062C3.625 8.52604 3.4375 8.07292 3.4375 7.53125V6.0625C3.4375 5.52958 3.62719 5.07344 4.00656 4.69406C4.38615 4.31469 4.84229 4.125 5.375 4.125H15.7188C16.2602 4.125 16.7236 4.31469 17.1091 4.69406C17.4947 5.07344 17.6875 5.52958 17.6875 6.0625V7.53125C17.6875 8.07292 17.4947 8.52604 17.1091 8.89062C16.7236 9.25521 16.2602 9.4375 15.7188 9.4375V12.9688C15.7188 13.4844 15.5352 13.9257 15.1681 14.2928C14.8008 14.6601 14.3594 14.8438 13.8438 14.8438H11.2188C11.0948 14.8438 10.9908 14.8017 10.9069 14.7175C10.8231 14.6335 10.7812 14.5294 10.7812 14.405C10.7812 14.2808 10.8231 14.1771 10.9069 14.0938C10.9908 14.0104 11.0948 13.9688 11.2188 13.9688H14.8438V9.4375H6.25V20.8125C6.25 22 6.6701 22.9948 7.51031 23.7969C8.35031 24.599 9.37042 25 10.5706 25C11.0027 25 11.4167 24.9427 11.8125 24.8281C12.2083 24.7135 12.5833 24.5417 12.9375 24.3125C13.0417 24.25 13.151 24.2292 13.2656 24.25C13.3802 24.2708 13.4669 24.3333 13.5256 24.4375C13.5919 24.5417 13.6099 24.6551 13.5797 24.7778C13.5493 24.9007 13.481 24.9956 13.375 25.0625C12.9583 25.3125 12.5176 25.5104 12.0528 25.6562C11.588 25.8021 11.0913 25.875 10.5625 25.875ZM5.375 8.5625H15.7188C16.0104 8.5625 16.2656 8.46354 16.4844 8.26562C16.7031 8.06771 16.8125 7.82292 16.8125 7.53125V6.0625C16.8125 5.77083 16.7031 5.52083 16.4844 5.3125C16.2656 5.10417 16.0104 5 15.7188 5H5.375C5.08333 5 4.83333 5.10417 4.625 5.3125C4.41667 5.52083 4.3125 5.77083 4.3125 6.0625V7.53125C4.3125 7.82292 4.41667 8.06771 4.625 8.26562C4.83333 8.46354 5.08333 8.5625 5.375 8.5625ZM20.0938 24.25C21.0938 24.25 21.9479 23.8958 22.6562 23.1875C23.3646 22.4792 23.7188 21.625 23.7188 20.625C23.7188 19.625 23.3646 18.7708 22.6562 18.0625C21.9479 17.3542 21.0938 17 20.0938 17C19.0938 17 18.2396 17.3542 17.5313 18.0625C16.8229 18.7708 16.4688 19.625 16.4688 20.625C16.4688 21.625 16.8229 22.4792 17.5313 23.1875C18.2396 23.8958 19.0938 24.25 20.0938 24.25ZM20.0938 25.125C18.8438 25.125 17.7813 24.6875 16.9063 23.8125C16.0313 22.9375 15.5938 21.875 15.5938 20.625C15.5938 19.375 16.0313 18.3125 16.9063 17.4375C17.7813 16.5625 18.8438 16.125 20.0938 16.125C21.3438 16.125 22.4062 16.5625 23.2812 17.4375C24.1562 18.3125 24.5938 19.375 24.5938 20.625C24.5938 21.1521 24.5052 21.6589 24.3281 22.1453C24.151 22.6318 23.8958 23.0833 23.5625 23.5L26.7813 26.7188C26.8646 26.8021 26.9062 26.8958 26.9062 27C26.9062 27.1042 26.8646 27.1979 26.7813 27.2812C26.6979 27.3646 26.5972 27.4062 26.4791 27.4062C26.3611 27.4062 26.264 27.3646 26.1875 27.2812L22.9688 24.0938C22.5521 24.4271 22.1005 24.6823 21.6141 24.8594C21.1276 25.0365 20.6208 25.125 20.0938 25.125Z" fill="white"/>
</g>
</svg>
