<svg width="30" height="30" viewBox="0 0 30 30" fill="none" xmlns="http://www.w3.org/2000/svg">
<mask id="mask0_1_1003" style="mask-type:alpha" maskUnits="userSpaceOnUse" x="0" y="0" width="30" height="30">
<rect width="30" height="30" fill="#D9D9D9"/>
</mask>
<g mask="url(#mask0_1_1003)">
<path d="M4.125 8.5C4.125 7.95833 4.30208 7.51042 4.65625 7.15625C5.01042 6.80208 5.45833 6.625 6 6.625H24C24.5417 6.625 24.9896 6.80208 25.3438 7.15625C25.6979 7.51042 25.875 7.95833 25.875 8.5V11.625C25.875 11.749 25.8329 11.8528 25.7488 11.9366C25.6648 12.0205 25.5606 12.0625 25.4363 12.0625C25.3121 12.0625 25.2083 12.0205 25.125 11.9366C25.0417 11.8528 25 11.749 25 11.625V8.5C25 8.25 24.8958 8.02083 24.6875 7.8125C24.4792 7.60417 24.25 7.5 24 7.5H6C5.75 7.5 5.52083 7.60417 5.3125 7.8125C5.10417 8.02083 5 8.25 5 8.5V11.625C5 11.749 4.95792 11.8528 4.87375 11.9366C4.78979 12.0205 4.68563 12.0625 4.56125 12.0625C4.43708 12.0625 4.33333 12.0205 4.25 11.9366C4.16667 11.8528 4.125 11.749 4.125 11.625V8.5ZM6 23.375C5.45833 23.375 5.01042 23.1979 4.65625 22.8438C4.30208 22.4896 4.125 22.0417 4.125 21.5V18.375C4.125 18.251 4.16708 18.1471 4.25125 18.0631C4.33521 17.9794 4.43937 17.9375 4.56375 17.9375C4.68792 17.9375 4.79167 17.9794 4.875 18.0631C4.95833 18.1471 5 18.251 5 18.375V21.5C5 21.75 5.10417 21.9792 5.3125 22.1875C5.52083 22.3958 5.75 22.5 6 22.5H24C24.25 22.5 24.4792 22.3958 24.6875 22.1875C24.8958 21.9792 25 21.75 25 21.5V18.375C25 18.251 25.0421 18.1471 25.1263 18.0631C25.2102 17.9794 25.3144 17.9375 25.4388 17.9375C25.5629 17.9375 25.6667 17.9794 25.75 18.0631C25.8333 18.1471 25.875 18.251 25.875 18.375V21.5C25.875 22.0417 25.6979 22.4896 25.3438 22.8438C24.9896 23.1979 24.5417 23.375 24 23.375H6ZM12.5006 20.4375C12.5835 20.4375 12.6625 20.4167 12.7375 20.375C12.8125 20.3333 12.8688 20.2708 12.9062 20.1875L17.5 11L19.5938 15.1875C19.6315 15.2708 19.6879 15.3333 19.7631 15.375C19.8383 15.4167 19.9173 15.4375 20 15.4375H25.4375C25.5615 15.4375 25.6653 15.3954 25.7491 15.3112C25.833 15.2273 25.875 15.1231 25.875 14.9987C25.875 14.8746 25.833 14.7708 25.7491 14.6875C25.6653 14.6042 25.5615 14.5625 25.4375 14.5625H20.2812L17.9063 9.8125C17.8729 9.74375 17.8229 9.69531 17.7563 9.66719C17.6896 9.63906 17.6094 9.625 17.5156 9.625C17.4219 9.625 17.3375 9.63906 17.2625 9.66719C17.1875 9.69531 17.1313 9.74375 17.0938 9.8125L12.5 19L10.4062 14.8125C10.3685 14.7292 10.3121 14.6667 10.2369 14.625C10.1617 14.5833 10.0827 14.5625 10 14.5625H4.5625C4.43854 14.5625 4.33458 14.6046 4.25063 14.6888C4.16688 14.7727 4.125 14.8769 4.125 15.0013C4.125 15.1254 4.16688 15.2292 4.25063 15.3125C4.33458 15.3958 4.43854 15.4375 4.5625 15.4375H9.71875L12.0938 20.1875C12.1315 20.2708 12.188 20.3333 12.2634 20.375C12.3386 20.4167 12.4177 20.4375 12.5006 20.4375Z" fill="white"/>
</g>
</svg>
