<svg width="30" height="30" viewBox="0 0 30 30" fill="none" xmlns="http://www.w3.org/2000/svg">
<mask id="mask0_1_1055" style="mask-type:alpha" maskUnits="userSpaceOnUse" x="0" y="0" width="30" height="30">
<rect width="30" height="30" fill="#D9D9D9"/>
</mask>
<g mask="url(#mask0_1_1055)">
<path d="M10.8125 23.375C10.6444 23.375 10.4878 23.3385 10.3428 23.2656C10.1976 23.1927 10.0833 23.0729 10 22.9062L7.875 19.0625H9.375L10.25 20.6875C10.3252 20.8542 10.438 20.9792 10.5884 21.0625C10.7391 21.1458 10.8971 21.1875 11.0625 21.1875H12.4688C12.5854 21.1875 12.6875 21.1438 12.775 21.0562C12.8625 20.9688 12.9062 20.8667 12.9062 20.75C12.9062 20.6333 12.8625 20.5312 12.775 20.4438C12.6875 20.3563 12.5854 20.3125 12.4688 20.3125H11.0272L10.1562 18.6875C10.081 18.5208 9.96823 18.3958 9.81781 18.3125C9.66719 18.2292 9.50917 18.1875 9.34375 18.1875H7.375L5.83531 15.4791C5.79927 15.3889 5.77083 15.3055 5.75 15.2291C5.72917 15.1528 5.71875 15.0765 5.71875 15C5.71875 14.9583 5.76042 14.8021 5.84375 14.5313L7.375 11.8125H9.34375C9.50917 11.8125 9.66719 11.7708 9.81781 11.6875C9.96823 11.6042 10.081 11.4792 10.1562 11.3125L11.0272 9.6875H12.4688C12.5854 9.6875 12.6875 9.64375 12.775 9.55625C12.8625 9.46875 12.9062 9.36667 12.9062 9.25C12.9062 9.13333 12.8625 9.03125 12.775 8.94375C12.6875 8.85625 12.5854 8.8125 12.4688 8.8125H11.0625C10.8971 8.8125 10.7391 8.85417 10.5884 8.9375C10.438 9.02083 10.3252 9.14583 10.25 9.3125L9.375 10.9375H7.875L10 7.09375C10.0833 6.92708 10.1976 6.80729 10.3428 6.73438C10.4878 6.66146 10.6444 6.625 10.8125 6.625H13.625C13.8906 6.625 14.1133 6.71479 14.2931 6.89437C14.4727 7.07417 14.5625 7.29688 14.5625 7.5625V11.9375H12.6562C12.5396 11.9375 12.4375 11.9813 12.35 12.0688C12.2625 12.1563 12.2188 12.2583 12.2188 12.375C12.2188 12.4917 12.2625 12.5937 12.35 12.6812C12.4375 12.7687 12.5396 12.8125 12.6562 12.8125H14.5625V16.125H12.1875L11.375 14.5313C11.2998 14.3646 11.187 14.2396 11.0366 14.1562C10.8859 14.0729 10.7279 14.0312 10.5625 14.0312H8.97125C8.84458 14.0312 8.73958 14.075 8.65625 14.1625C8.57292 14.25 8.53125 14.3521 8.53125 14.4688C8.53125 14.5854 8.575 14.6875 8.6625 14.775C8.75 14.8625 8.85208 14.9062 8.96875 14.9062H10.5938L11.4062 16.5C11.4815 16.6667 11.5943 16.7917 11.7447 16.875C11.8953 16.9583 12.0533 17 12.2188 17H14.5625V22.4375C14.5625 22.7031 14.4727 22.9257 14.2931 23.1053C14.1133 23.2851 13.8906 23.375 13.625 23.375H10.8125ZM17.5 23.375C17.0208 23.375 16.6198 23.2135 16.2969 22.8906C15.974 22.5677 15.8125 22.1667 15.8125 21.6875C15.8125 21.2992 15.9323 20.9573 16.1719 20.6619C16.4115 20.3665 16.7083 20.1667 17.0625 20.0625V9.9375C16.7083 9.83333 16.4115 9.63354 16.1719 9.33813C15.9323 9.04271 15.8125 8.70083 15.8125 8.3125C15.8125 7.83333 15.974 7.43229 16.2969 7.10938C16.6198 6.78646 17.0208 6.625 17.5 6.625C17.9792 6.625 18.3802 6.78646 18.7031 7.10938C19.026 7.43229 19.1875 7.83333 19.1875 8.3125C19.1875 8.70083 19.0677 9.04271 18.8281 9.33813C18.5885 9.63354 18.2917 9.83333 17.9375 9.9375V13.6875L21.3125 11.6562C21.1458 11.1146 21.2344 10.625 21.5781 10.1875C21.9219 9.75 22.375 9.53125 22.9375 9.53125C23.4167 9.53125 23.8177 9.69271 24.1406 10.0156C24.4635 10.3385 24.625 10.7396 24.625 11.2188C24.625 11.6979 24.4635 12.099 24.1406 12.4219C23.8177 12.7448 23.4167 12.9062 22.9375 12.9062C22.716 12.9062 22.5096 12.8594 22.3181 12.7656C22.1269 12.6719 21.9479 12.5521 21.7812 12.4062L18.2812 14.5313L21.9375 17.4375C22.0833 17.3333 22.2391 17.2552 22.4047 17.2031C22.5705 17.151 22.7481 17.125 22.9375 17.125C23.4167 17.125 23.8177 17.2865 24.1406 17.6094C24.4635 17.9323 24.625 18.3333 24.625 18.8125C24.625 19.2917 24.4635 19.6927 24.1406 20.0156C23.8177 20.3385 23.4167 20.5 22.9375 20.5C22.3125 20.5 21.8385 20.2396 21.5156 19.7188C21.1927 19.1979 21.1458 18.6667 21.375 18.125L17.9375 15.375V20.0938C18.2917 20.1979 18.5833 20.3906 18.8125 20.6719C19.0417 20.9531 19.1562 21.2917 19.1562 21.6875C19.1562 22.1667 19 22.5677 18.6875 22.8906C18.375 23.2135 17.9792 23.375 17.5 23.375Z" fill="#F9F9F9"/>
</g>
</svg>
