<svg width="50" height="50" viewBox="0 0 50 50" fill="none" xmlns="http://www.w3.org/2000/svg">
<mask id="mask0_1_548" style="mask-type:alpha" maskUnits="userSpaceOnUse" x="0" y="0" width="50" height="50">
<rect width="50" height="50" fill="#D9D9D9"/>
</mask>
<g mask="url(#mask0_1_548)">
<path d="M25 41.0417L28.75 37.3438C28.8889 37.2049 29.0625 37.1267 29.2708 37.1094C29.4792 37.092 29.6528 37.1701 29.7917 37.3438C29.9306 37.4826 29.9913 37.6563 29.974 37.8646C29.9566 38.0729 29.8785 38.2465 29.7396 38.3854L26.0938 42.0313C25.9201 42.2049 25.7465 42.3264 25.5729 42.3958C25.3993 42.4653 25.2083 42.5 25 42.5C24.7917 42.5 24.6007 42.4653 24.4271 42.3958C24.2535 42.3264 24.0799 42.2049 23.9063 42.0313L20.2604 38.3854C20.1215 38.2465 20.0434 38.0816 20.026 37.8906C20.0087 37.6997 20.0868 37.5174 20.2604 37.3438C20.434 37.1701 20.6076 37.0833 20.7813 37.0833C20.9549 37.0833 21.1285 37.1701 21.3021 37.3438L25 41.0417ZM8.95833 25L12.6563 28.6979C12.7951 28.8368 12.8733 29.0017 12.8906 29.1927C12.908 29.3837 12.8299 29.566 12.6563 29.7396C12.4826 29.9132 12.309 30 12.1354 30C11.9618 30 11.7882 29.9132 11.6146 29.7396L7.96875 26.0938C7.79514 25.9201 7.67361 25.7465 7.60417 25.5729C7.53472 25.3993 7.5 25.2083 7.5 25C7.5 24.7917 7.53472 24.6007 7.60417 24.4271C7.67361 24.2535 7.79514 24.0799 7.96875 23.9063L11.6667 20.2083C11.8056 20.0694 11.9618 20 12.1354 20C12.309 20 12.4826 20.0694 12.6563 20.2083C12.8299 20.3472 12.908 20.5208 12.8906 20.7292C12.8733 20.9375 12.7951 21.1111 12.6563 21.25L8.95833 25ZM41.0938 25L37.3438 21.1979C37.2049 21.059 37.1441 20.8941 37.1615 20.7031C37.1788 20.5122 37.257 20.3472 37.3958 20.2083C37.5347 20.0694 37.6997 20 37.8906 20C38.0816 20 38.2465 20.0694 38.3854 20.2083L42.0313 23.9063C42.2049 24.0799 42.3264 24.2535 42.3958 24.4271C42.4653 24.6007 42.5 24.7917 42.5 25C42.5 25.2083 42.4653 25.3993 42.3958 25.5729C42.3264 25.7465 42.2049 25.9201 42.0313 26.0938L38.3854 29.7396C38.2465 29.8785 38.0729 29.9566 37.8646 29.974C37.6563 29.9913 37.4826 29.9132 37.3438 29.7396C37.2049 29.6007 37.1441 29.4271 37.1615 29.2188C37.1788 29.0104 37.257 28.8368 37.3958 28.6979L41.0938 25ZM25 8.90625L21.25 12.6563C21.1111 12.7951 20.9462 12.8646 20.7552 12.8646C20.5642 12.8646 20.3993 12.7951 20.2604 12.6563C20.0868 12.5174 20.0087 12.3438 20.026 12.1354C20.0434 11.9271 20.1215 11.7535 20.2604 11.6146L23.9063 7.96875C24.0799 7.79514 24.2535 7.67361 24.4271 7.60417C24.6007 7.53472 24.7917 7.5 25 7.5C25.2083 7.5 25.3993 7.53472 25.5729 7.60417C25.7465 7.67361 25.9201 7.79514 26.0938 7.96875L29.7917 11.6667C29.9306 11.8056 29.9913 11.9705 29.974 12.1615C29.9566 12.3524 29.8785 12.5174 29.7396 12.6563C29.6007 12.7951 29.4444 12.8646 29.2708 12.8646C29.0972 12.8646 28.941 12.7951 28.8021 12.6563L25 8.90625Z" fill="#1656A5"/>
</g>
</svg>
