<svg width="30" height="30" viewBox="0 0 30 30" fill="none" xmlns="http://www.w3.org/2000/svg">
<mask id="mask0_1_1017" style="mask-type:alpha" maskUnits="userSpaceOnUse" x="0" y="0" width="30" height="30">
<rect width="30" height="30" fill="#D9D9D9"/>
</mask>
<g mask="url(#mask0_1_1017)">
<path d="M8.1875 18.875C9.27083 18.375 10.3438 17.9896 11.4062 17.7188C12.4688 17.4479 13.5312 17.2917 14.5938 17.25C14.5729 17.3542 14.5521 17.4531 14.5313 17.5469C14.5104 17.6406 14.5208 17.7292 14.5625 17.8125C14.5833 17.8542 14.6146 17.8802 14.6562 17.8906C14.6979 17.901 14.7188 17.9271 14.7188 17.9688C14.7188 18.0104 14.7031 18.0469 14.6719 18.0781C14.6406 18.1094 14.6042 18.125 14.5625 18.125C13.5417 18.1667 12.5312 18.3125 11.5312 18.5625C10.5312 18.8125 9.5625 19.1667 8.625 19.625C8.27083 19.8125 7.99479 20.0365 7.79688 20.2969C7.59896 20.5573 7.5 20.8333 7.5 21.125V21.875H16.3125C16.4583 21.875 16.5677 21.92 16.6406 22.01C16.7135 22.1 16.75 22.199 16.75 22.3069C16.75 22.4148 16.7135 22.5156 16.6406 22.6094C16.5677 22.7031 16.4583 22.75 16.3125 22.75H7.5625C7.29167 22.75 7.06771 22.6615 6.89062 22.4844C6.71354 22.3073 6.625 22.0833 6.625 21.8125V21.125C6.625 20.6667 6.76562 20.2344 7.04688 19.8281C7.32812 19.4219 7.70833 19.1042 8.1875 18.875ZM15 14C14.0719 14 13.2774 13.6696 12.6166 13.0088C11.9555 12.3477 11.625 11.5531 11.625 10.625C11.625 9.69688 11.9555 8.90229 12.6166 8.24125C13.2774 7.58042 14.0719 7.25 15 7.25C15.9281 7.25 16.7227 7.58042 17.3838 8.24125C18.0446 8.90229 18.375 9.69688 18.375 10.625C18.375 11.5531 18.0446 12.3477 17.3838 13.0088C16.7227 13.6696 15.9281 14 15 14ZM15 13.125C15.6875 13.125 16.276 12.8802 16.7656 12.3906C17.2552 11.901 17.5 11.3125 17.5 10.625C17.5 9.9375 17.2552 9.34896 16.7656 8.85938C16.276 8.36979 15.6875 8.125 15 8.125C14.3125 8.125 13.724 8.36979 13.2344 8.85938C12.7448 9.34896 12.5 9.9375 12.5 10.625C12.5 11.3125 12.7448 11.901 13.2344 12.3906C13.724 12.8802 14.3125 13.125 15 13.125ZM21.7812 16.9375C22.1354 16.5833 22.4497 16.2969 22.7241 16.0781C22.9982 15.8594 23.3764 15.75 23.8584 15.75C24.4736 15.75 24.9635 15.9583 25.3281 16.375C25.6927 16.7917 25.875 17.2684 25.875 17.8053C25.875 18.0568 25.8281 18.3083 25.7344 18.56C25.6406 18.8117 25.492 19.0393 25.2884 19.2428L22.4375 22.0938C22.25 22.2812 22.0312 22.375 21.7812 22.375C21.5312 22.375 21.3125 22.2812 21.125 22.0938L18.2812 19.25C18.0521 19.0208 17.8958 18.7847 17.8125 18.5416C17.7292 18.2986 17.6875 18.0556 17.6875 17.8125C17.6875 17.2758 17.8774 16.7979 18.2572 16.3787C18.637 15.9596 19.1242 15.75 19.7188 15.75C20.1952 15.75 20.5695 15.8594 20.8416 16.0781C21.1139 16.2969 21.4271 16.5833 21.7812 16.9375Z" fill="white"/>
</g>
</svg>
