<svg width="30" height="30" viewBox="0 0 30 30" fill="none" xmlns="http://www.w3.org/2000/svg">
<mask id="mask0_1_1079" style="mask-type:alpha" maskUnits="userSpaceOnUse" x="0" y="0" width="30" height="30">
<rect width="30" height="30" fill="#D9D9D9"/>
</mask>
<g mask="url(#mask0_1_1079)">
<path d="M15.4375 14.8438L19.4375 18.8438C19.5208 18.9271 19.5573 19.026 19.5469 19.1406C19.5365 19.2552 19.4896 19.3542 19.4062 19.4375C19.3229 19.5208 19.2222 19.5625 19.1041 19.5625C18.9861 19.5625 18.889 19.5208 18.8125 19.4375L14.8438 15.4375C14.7396 15.3333 14.6667 15.2269 14.625 15.1181C14.5833 15.0096 14.5625 14.8973 14.5625 14.7813V10C14.5625 9.87604 14.6046 9.77219 14.6888 9.68844C14.7727 9.60448 14.8769 9.5625 15.0013 9.5625C15.1254 9.5625 15.2292 9.60448 15.3125 9.68844C15.3958 9.77219 15.4375 9.87604 15.4375 10V14.8438ZM18.5919 6.40625C18.364 6.40625 18.1719 6.3275 18.0156 6.17C17.8594 6.01271 17.7812 5.82 17.7812 5.59188C17.7812 5.36396 17.86 5.17188 18.0175 5.01563C18.1748 4.85938 18.3675 4.78125 18.5956 4.78125C18.8235 4.78125 19.0156 4.86 19.1719 5.0175C19.3281 5.17479 19.4062 5.3675 19.4062 5.59562C19.4062 5.82354 19.3275 6.01562 19.17 6.17188C19.0127 6.32812 18.82 6.40625 18.5919 6.40625ZM18.4981 25.2188C18.2702 25.2188 18.0781 25.14 17.9219 24.9825C17.7656 24.8252 17.6875 24.6325 17.6875 24.4044C17.6875 24.1765 17.7663 23.9844 17.9238 23.8281C18.081 23.6719 18.2738 23.5938 18.5019 23.5938C18.7298 23.5938 18.9219 23.6725 19.0781 23.83C19.2344 23.9873 19.3125 24.18 19.3125 24.4081C19.3125 24.636 19.2338 24.8281 19.0763 24.9844C18.919 25.1406 18.7262 25.2188 18.4981 25.2188ZM23.4981 10.4062C23.2702 10.4062 23.0781 10.3275 22.9219 10.17C22.7656 10.0127 22.6875 9.82 22.6875 9.59188C22.6875 9.36396 22.7663 9.17188 22.9237 9.01562C23.081 8.85938 23.2738 8.78125 23.5019 8.78125C23.7298 8.78125 23.9219 8.86 24.0781 9.0175C24.2344 9.17479 24.3125 9.3675 24.3125 9.59562C24.3125 9.82354 24.2338 10.0156 24.0763 10.1719C23.919 10.3281 23.7262 10.4062 23.4981 10.4062ZM23.4044 21.3125C23.1765 21.3125 22.9844 21.2337 22.8281 21.0763C22.6719 20.919 22.5938 20.7262 22.5938 20.4981C22.5938 20.2702 22.6725 20.0781 22.83 19.9219C22.9873 19.7656 23.18 19.6875 23.4081 19.6875C23.636 19.6875 23.8281 19.7662 23.9844 19.9237C24.1406 20.081 24.2188 20.2738 24.2188 20.5019C24.2188 20.7298 24.14 20.9219 23.9825 21.0781C23.8252 21.2344 23.6325 21.3125 23.4044 21.3125ZM25.0606 15.8125C24.8327 15.8125 24.6406 15.7338 24.4844 15.5763C24.3281 15.419 24.25 15.2263 24.25 14.9981C24.25 14.7702 24.3287 14.5781 24.4862 14.4219C24.6435 14.2656 24.8363 14.1875 25.0644 14.1875C25.2923 14.1875 25.4844 14.2663 25.6406 14.4237C25.7969 14.581 25.875 14.7738 25.875 15.0019C25.875 15.2298 25.7963 15.4219 25.6388 15.5781C25.4815 15.7344 25.2888 15.8125 25.0606 15.8125ZM4.125 14.9953C4.125 12.0818 5.125 9.57812 7.125 7.48438C9.125 5.39062 11.5729 4.27083 14.4688 4.125C14.6146 4.125 14.7396 4.16781 14.8438 4.25344C14.9479 4.33885 15 4.4449 15 4.57156C15 4.69052 14.9479 4.79167 14.8438 4.875C14.7396 4.95833 14.625 5 14.5 5C11.8333 5.125 9.58333 6.15104 7.75 8.07813C5.91667 10.0052 5 12.3123 5 14.9994C5 17.7081 5.91667 20.0208 7.75 21.9375C9.58333 23.8542 11.8333 24.875 14.5 25C14.625 25 14.7396 25.0439 14.8438 25.1316C14.9479 25.2193 15 25.3217 15 25.4388C15 25.5629 14.9479 25.6667 14.8438 25.75C14.7396 25.8333 14.6146 25.875 14.4688 25.875C11.5729 25.7292 9.125 24.6078 7.125 22.5109C5.125 20.4139 4.125 17.9086 4.125 14.9953Z" fill="#F9F9F9"/>
</g>
</svg>
