<svg width="24" height="24" viewBox="0 0 24 24" fill="none" xmlns="http://www.w3.org/2000/svg">
<path d="M19 11.5C19 12.9834 18.5601 14.4334 17.736 15.6668C16.9119 16.9001 15.7406 17.8614 14.3701 18.4291C12.9997 18.9967 11.4917 19.1453 10.0368 18.8559C8.58197 18.5665 7.2456 17.8522 6.1967 16.8033C5.14781 15.7544 4.4335 14.418 4.14411 12.9632C3.85472 11.5083 4.00325 10.0003 4.57091 8.62987C5.13856 7.25943 6.09986 6.08809 7.33323 5.26398C8.56659 4.43987 10.0166 4 11.5 4C13.4891 4 15.3968 4.79018 16.8033 6.1967C18.2098 7.60322 19 9.51087 19 11.5V11.5Z" stroke="#2C2C2C" stroke-linecap="round" stroke-linejoin="round"/>
<path d="M20 20L19 19" stroke="#2C2C2C" stroke-linecap="round" stroke-linejoin="round"/>
</svg>
