<svg width="50" height="50" viewBox="0 0 50 50" fill="none" xmlns="http://www.w3.org/2000/svg">
<mask id="mask0_1_540" style="mask-type:alpha" maskUnits="userSpaceOnUse" x="0" y="0" width="50" height="50">
<rect width="50" height="50" fill="#D9D9D9"/>
</mask>
<g mask="url(#mask0_1_540)">
<path d="M28.0274 43.1248C25.0111 43.1248 22.4417 42.0745 20.3191 39.9738C18.1965 37.8731 17.1353 35.3123 17.1353 32.2915V31.2498C14.6005 31.0762 12.4564 30.0519 10.703 28.1769C8.94949 26.3019 8.07275 24.0623 8.07275 21.4582V11.8748C8.07275 11.4321 8.22258 11.0609 8.52223 10.7613C8.82154 10.462 9.19255 10.3123 9.63525 10.3123H14.3228V8.95817C14.3228 8.75157 14.3929 8.57848 14.5332 8.4389C14.6731 8.29897 14.8467 8.229 15.054 8.229C15.2609 8.229 15.4339 8.29897 15.5728 8.4389C15.7116 8.57848 15.7811 8.75157 15.7811 8.95817V13.1248C15.7811 13.3314 15.7109 13.5045 15.5707 13.6441C15.4307 13.784 15.2571 13.854 15.0498 13.854C14.8429 13.854 14.67 13.784 14.5311 13.6441C14.3922 13.5045 14.3228 13.3314 14.3228 13.1248V11.7707H9.53109V21.4582C9.53109 23.7498 10.3471 25.7116 11.979 27.3436C13.6109 28.9755 15.5728 29.7915 17.8644 29.7915C20.1561 29.7915 22.1179 28.9755 23.7498 27.3436C25.3818 25.7116 26.1978 23.7498 26.1978 21.4582V11.7707H21.4061V13.1248C21.4061 13.3314 21.3359 13.5045 21.1957 13.6441C21.0557 13.784 20.8821 13.854 20.6748 13.854C20.4679 13.854 20.295 13.784 20.1561 13.6441C20.0172 13.5045 19.9478 13.3314 19.9478 13.1248V8.95817C19.9478 8.75157 20.0179 8.57848 20.1582 8.4389C20.2981 8.29897 20.4717 8.229 20.679 8.229C20.8859 8.229 21.0589 8.29897 21.1978 8.4389C21.3366 8.57848 21.4061 8.75157 21.4061 8.95817V10.3123H26.0936C26.5363 10.3123 26.9075 10.462 27.2071 10.7613C27.5064 11.0609 27.6561 11.4321 27.6561 11.8748V21.4582C27.6561 24.0623 26.7794 26.3019 25.0259 28.1769C23.2724 30.0519 21.1283 31.0762 18.5936 31.2498V32.2915C18.5936 34.8957 19.5101 37.1092 21.3431 38.9321C23.1761 40.755 25.4019 41.6665 28.0207 41.6665C30.6248 41.6665 32.8384 40.755 34.6613 38.9321C36.4842 37.1092 37.3957 34.8957 37.3957 32.2915V29.1144C36.4929 28.9408 35.7464 28.4939 35.1561 27.7738C34.5658 27.0537 34.2707 26.2332 34.2707 25.3123C34.2707 24.2418 34.646 23.3318 35.3967 22.5821C36.1474 21.8328 37.0589 21.4582 38.1311 21.4582C39.2033 21.4582 40.1127 21.8328 40.8592 22.5821C41.6057 23.3318 41.979 24.2418 41.979 25.3123C41.979 26.2332 41.6839 27.0537 41.0936 27.7738C40.5033 28.4939 39.7568 28.9408 38.854 29.1144V32.2915C38.854 35.3123 37.8037 37.8731 35.703 39.9738C33.6023 42.0745 31.0438 43.1248 28.0274 43.1248ZM38.1248 27.7082C38.7846 27.7082 39.3488 27.4738 39.8175 27.005C40.2863 26.5363 40.5207 25.9721 40.5207 25.3123C40.5207 24.6526 40.2863 24.0884 39.8175 23.6196C39.3488 23.1509 38.7846 22.9165 38.1248 22.9165C37.4651 22.9165 36.9009 23.1509 36.4321 23.6196C35.9634 24.0884 35.729 24.6526 35.729 25.3123C35.729 25.9721 35.9634 26.5363 36.4321 27.005C36.9009 27.4738 37.4651 27.7082 38.1248 27.7082Z" fill="#1656A5"/>
</g>
</svg>
